<svg xmlns="http://www.w3.org/2000/svg" viewBox="0 0 1056.84 325.48"><defs><style>.cls-1{fill:#fff;}</style></defs><title>ProtoSchoolWhite horizontal</title><g id="Warstwa_2" data-name="Warstwa 2"><path class="cls-1" d="M203.62,82.78H111.3l-46.16,80,46.16,79.95h92.32l46.16-79.95Zm-.83,158.47H112.13L66.8,162.74l45.33-78.52h90.66l45.33,78.52Z"/><path class="cls-1" d="M255.77,154.5l.17-.38L199.48,73.48l-.24-.34-98.48,8.62L59.16,171l-.18.37L115.45,252l.24.34,98.47-8.61ZM116.39,250.83,60.64,171.21l41.07-88.09,96.83-8.47,55.75,79.62-41.08,88.09Z"/><path class="cls-1" d="M157.46,30.37,43.55,96.14l-.72.41V228.92L157.46,295.1l113.91-65.76.72-.42V96.55ZM258.21,233.61l-9.88,4.61L267.67,128.5l-9.18,105ZM146.45,285.42l-8.92-6.25,104.69-38.11-95.47,44.53ZM45.71,214.54l.95-10.85L132,275.32,45.71,214.88Zm11-122.69,9.86-4.59L47.24,197,56.43,92ZM168.5,40.07l8.9,6.24L72.7,84.41l95.48-44.52Zm-114.81,141,67.46,80.4.06.08L51,191.27Zm1.62-.31L90.78,83.28l102.16-18,66.68,79.46L224.14,242.2,122,260.21Zm169.49,62.8.1,0-96,25.71-7.47-7.47Zm36.31-98.72,0-.05-25.7,95.93-10.21,2.73Zm.12-.43L193.77,64l-.06-.08L264,134.2ZM90.13,81.93,90,82l96-25.72,7.48,7.48ZM53.81,180.65l0,.1,25.71-96L89.7,82Zm-3.59,7.8L68,87.66l10.23-3.73ZM49.6,192l76.51,76.51-78.4-65.78Zm183.8,50.78-96.22,35-8.34-7ZM264.72,137,246.94,237.81l-10.24,3.73Zm.61-3.45L188.82,57l78.4,65.78ZM81.5,82.74l96.24-35,8.34,7Zm186.76,39-85.4-71.65,86.35,60.47v.34Zm.95-12.94L182.8,48.33l86.41,49.89ZM166.66,39,71.06,83.58l86.4-49.88ZM54.91,92.91,45.71,198V98.22Zm-9.2,123.73,86.44,60.52-86.44-49.9Zm102.56,69.83,95.62-44.59-86.43,49.9ZM260,232.57l9.19-105.07v99.76Z"/><path class="cls-1" d="M383.64,128.82q9,7.58,9,20.83t-9,20.78q-9,7.51-24.86,7.52H336.53v26.16h-8.76V121.24h31Q374.65,121.24,383.64,128.82Zm-6.27,36.05c4.34-3.6,6.51-8.66,6.51-15.22s-2.17-11.85-6.51-15.45-10.62-5.38-18.82-5.38h-22v41.43h22Q370.85,170.25,377.37,164.87Z"/><path class="cls-1" d="M425.14,144.56q5.85-3.19,14.5-3.19v8.16l-2-.11q-9.84,0-15.4,6t-5.56,16.92v31.73h-8.41V141.84h8.06V154A20.39,20.39,0,0,1,425.14,144.56Z"/><path class="cls-1" d="M463.43,200.62a29.81,29.81,0,0,1-11.36-11.31,34.22,34.22,0,0,1,0-32.67,29.38,29.38,0,0,1,11.36-11.25,34.73,34.73,0,0,1,32.44,0,29,29,0,0,1,11.3,11.25,34.74,34.74,0,0,1,0,32.67,29.45,29.45,0,0,1-11.3,11.31,34.28,34.28,0,0,1-32.44,0Zm28.12-6.4a21,21,0,0,0,8.22-8.58,28.57,28.57,0,0,0,0-25.33,21,21,0,0,0-8.22-8.58,25,25,0,0,0-23.8,0,21.48,21.48,0,0,0-8.29,8.58,28.07,28.07,0,0,0,0,25.33,21.48,21.48,0,0,0,8.29,8.58,25,25,0,0,0,23.8,0Z"/><path class="cls-1" d="M561.21,200.32a15.93,15.93,0,0,1-5.86,3.26,23.58,23.58,0,0,1-7.28,1.12q-8.76,0-13.49-4.73t-4.74-13.38V148.94H518.72v-7.1h11.12V128.23h8.41v13.61h18.94v7.1H538.25v37.18c0,3.7.92,6.53,2.78,8.46s4.52,2.9,8,2.9a15.51,15.51,0,0,0,5-.83,12.34,12.34,0,0,0,4.2-2.37Z"/><path class="cls-1" d="M583.47,200.62a29.83,29.83,0,0,1-11.37-11.31,34.3,34.3,0,0,1,0-32.67,29.4,29.4,0,0,1,11.37-11.25,34.73,34.73,0,0,1,32.44,0,29,29,0,0,1,11.3,11.25,34.74,34.74,0,0,1,0,32.67,29.45,29.45,0,0,1-11.3,11.31,34.28,34.28,0,0,1-32.44,0Zm28.11-6.4a21,21,0,0,0,8.23-8.58,28.57,28.57,0,0,0,0-25.33,21,21,0,0,0-8.23-8.58,24.94,24.94,0,0,0-23.79,0,21.42,21.42,0,0,0-8.29,8.58,28.07,28.07,0,0,0,0,25.33,21.42,21.42,0,0,0,8.29,8.58,24.94,24.94,0,0,0,23.79,0Z"/><path class="cls-1" d="M655.74,201.38q-8.12-3.19-12.49-8.28l2.13-2.84A30.05,30.05,0,0,0,656.92,198a41.31,41.31,0,0,0,15.8,3q12.43,0,18.77-4.91a15.28,15.28,0,0,0,6.33-12.61,13.55,13.55,0,0,0-3.31-9.53,21.06,21.06,0,0,0-8.17-5.45,115.65,115.65,0,0,0-13.26-3.84,123.25,123.25,0,0,1-14.44-4.38,23.14,23.14,0,0,1-9.23-6.51q-3.79-4.38-3.79-11.72a19.53,19.53,0,0,1,3.07-10.66,21.28,21.28,0,0,1,9.42-7.75q6.33-2.9,15.8-2.9a45.29,45.29,0,0,1,13.32,2,34.91,34.91,0,0,1,11.19,5.57l-1.78,3.19a36.12,36.12,0,0,0-10.83-5.38A39.8,39.8,0,0,0,674,124.32q-12.07,0-18.29,5a15.71,15.71,0,0,0-6.21,12.73q0,6,3.37,9.65a22,22,0,0,0,8.29,5.5,112.54,112.54,0,0,0,13.19,3.91,132.81,132.81,0,0,1,14.45,4.32,22.41,22.41,0,0,1,9.17,6.39q3.74,4.32,3.73,11.54a19.34,19.34,0,0,1-3.13,10.66,21.19,21.19,0,0,1-9.66,7.69q-6.51,2.85-16.09,2.84A46,46,0,0,1,655.74,201.38Z"/><path class="cls-1" d="M729.25,200.5a28.48,28.48,0,0,1-10.89-11.07,34.63,34.63,0,0,1,0-32.2,28.54,28.54,0,0,1,10.89-11.07,31,31,0,0,1,15.69-4,31.44,31.44,0,0,1,13,2.66,24,24,0,0,1,9.76,7.87l-3,2.49a21.13,21.13,0,0,0-8.46-7,28.41,28.41,0,0,0-25,1.13,24.79,24.79,0,0,0-9.53,9.71,29,29,0,0,0-3.43,14.26,29.3,29.3,0,0,0,3.43,14.32,24.68,24.68,0,0,0,9.53,9.77,28.41,28.41,0,0,0,25,1.13,21.13,21.13,0,0,0,8.46-7l3,2.37a23.88,23.88,0,0,1-9.76,7.87,31.44,31.44,0,0,1-13,2.66A31,31,0,0,1,729.25,200.5Z"/><path class="cls-1" d="M832.42,148.88q6.63,6.69,6.62,19.12v36.11h-3.9V168.24q0-10.89-5.5-16.63T814,145.87q-11.48,0-18.11,6.8T789.21,171v33.15H785.3V116.27h3.91v41.08a23.94,23.94,0,0,1,9.59-11.13,28.92,28.92,0,0,1,15.5-4Q825.79,142.2,832.42,148.88Z"/><path class="cls-1" d="M872.49,200.5a28.06,28.06,0,0,1-10.83-11.07,35.1,35.1,0,0,1,0-32.2,28.12,28.12,0,0,1,10.83-11.07,32.22,32.22,0,0,1,31,0,28.34,28.34,0,0,1,10.78,11.07,35.18,35.18,0,0,1,0,32.2,28.27,28.27,0,0,1-10.78,11.07,32.22,32.22,0,0,1-31,0Zm28.88-3.08a24.86,24.86,0,0,0,9.41-9.77,29.31,29.31,0,0,0,3.44-14.32,29,29,0,0,0-3.44-14.26,25,25,0,0,0-9.41-9.71,27.6,27.6,0,0,0-26.87,0,25,25,0,0,0-9.41,9.71,29,29,0,0,0-3.43,14.26,29.3,29.3,0,0,0,3.43,14.32,24.93,24.93,0,0,0,9.41,9.77,27.6,27.6,0,0,0,26.87,0Z"/><path class="cls-1" d="M945.18,200.5a28.08,28.08,0,0,1-10.84-11.07,35.18,35.18,0,0,1,0-32.2,28.15,28.15,0,0,1,10.84-11.07,32.22,32.22,0,0,1,31,0,28.38,28.38,0,0,1,10.77,11.07,35.1,35.1,0,0,1,0,32.2,28.32,28.32,0,0,1-10.77,11.07,32.22,32.22,0,0,1-31,0Zm28.88-3.08a24.93,24.93,0,0,0,9.41-9.77,29.3,29.3,0,0,0,3.43-14.32,29,29,0,0,0-3.43-14.26,25,25,0,0,0-9.41-9.71,27.62,27.62,0,0,0-26.88,0,25,25,0,0,0-9.41,9.71,29,29,0,0,0-3.43,14.26,29.3,29.3,0,0,0,3.43,14.32,24.93,24.93,0,0,0,9.41,9.77,27.62,27.62,0,0,0,26.88,0Z"/><path class="cls-1" d="M1010.1,116.27H1014v87.84h-3.91Z"/></g></svg>