<svg xmlns="http://www.w3.org/2000/svg" viewBox="0 0 148.99 155.94"><defs><style>.cls-1{fill:#fff;}</style></defs><title>ProtoSchool_Symbol_white</title><g id="Warstwa_2" data-name="Warstwa 2"><path class="cls-1" d="M100.48,33h-52l-26,45,26,45h52l26-45Zm-.47,89.2H49L23.47,78,49,33.77h51L125.53,78Z"/><path class="cls-1" d="M129.84,73.33l.09-.21L98.15,27.73l-.14-.2L42.58,32.38,19.16,82.61l-.1.21,31.79,45.39.13.19,55.44-4.85ZM51.37,127.55,20,82.74,43.12,33.15l54.5-4.77L129,73.2l-23.12,49.59Z"/><path class="cls-1" d="M74.5,3.46l-64.12,37-.41.23v74.51L74.5,152.48l64.12-37,.4-.24V40.71Zm56.69,114.41-5.55,2.59,10.9-61.8-5.17,59.11ZM68.3,147l-5-3.52,59-21.46L68.46,147.12Zm-56.71-39.9.54-6.11,48.05,40.32-48.59-34ZM17.8,38.06l5.55-2.58L12.45,97.27l5.17-59.1ZM80.71,8.92l5,3.51L26.78,33.88,80.53,8.81ZM16.08,88.28l38,45.26,0,.05L14.54,94Zm.92-.17L37,33.24,94.47,23.1,132,67.83,112,122.7l-57.5,10.14Zm95.4,35.35.07,0-54,14.48-4.2-4.21Zm20.44-55.57,0-.06-14.47,54-5.75,1.54Zm.07-.24-38-45.25,0,0L134.45,61.9ZM36.6,32.48h-.07L90.56,18l4.21,4.21ZM16.15,88.05l0,0,14.48-54,5.75-1.54Zm-2,4.39,10-56.73,5.76-2.1Zm-.35,2L56.87,137.5l-44.15-37ZM117.23,123,63.08,142.72l-4.7-3.94ZM134.87,63.5l-10,56.73-5.76,2.09Zm.35-2L92.15,18.45l44.13,37ZM31.74,32.94,85.91,13.22l4.7,3.94Zm105.13,22L88.79,14.57l48.61,34v.23Zm.53-7.3-48.63-34L137.4,41.65ZM79.67,8.32,25.86,33.41,74.5,5.33ZM16.77,38.66,11.59,97.81V41.65Zm-5.18,69.65,48.66,34.07L11.59,114.29Zm57.73,39.31,53.82-25.1L74.5,150.61Zm62.91-30.35,5.17-59.11v56.13Z"/></g></svg>